<svg data-name="Layer 1" viewBox="0 0 272 272" xmlns="http://www.w3.org/2000/svg"><rect height="128" rx="16" ry="16" width="128" x="76" y="8" fill="#f09999" class="fill-ffeb3c"></rect><rect height="96" rx="8" ry="8" transform="rotate(90 140 72)" width="96" x="92" y="24" fill="#f3f4f2" class="fill-f3f4f2"></rect><rect height="128" rx="16" ry="16" width="128" x="136" y="136" fill="#f09999" class="fill-f54337"></rect><rect height="96" rx="8" ry="8" transform="rotate(90 200 200)" width="96" x="152" y="152" fill="#f3f4f2" class="fill-f3f4f2"></rect><rect height="128" rx="16" ry="16" width="128" x="8" y="136" fill="#f09999" class="fill-64b5f6"></rect><rect height="96" rx="8" ry="8" transform="rotate(90 72 200)" width="96" x="24" y="152" fill="#f3f4f2" class="fill-f3f4f2"></rect><path d="M148.22 100.56h-14.54q-6.92 0-6.92-4.36 0-4.91 7.73-4.91h1.61V58.82Q132.92 61 132 61a5 5 0 0 1-3.57-1.46 4.59 4.59 0 0 1-1.52-3.41q0-2 2.45-4.14l4.14-3 4.47-3.59a9.15 9.15 0 0 1 5.31-2q3.3 0 3.29 4 0 4.36-.37 12.27t-.37 22.6v8.86h2.42a5 5 0 0 1 3.57 1.35 4.65 4.65 0 0 1 0 6.74 5 5 0 0 1-3.6 1.34Z" fill="#f09999" class="fill-ffeb3c"></path><path d="M85.73 228.14a19.7 19.7 0 0 1-2.84-.31 19.8 19.8 0 0 0-2.77-.31H69.35a37.94 37.94 0 0 0-4.21.35 37.79 37.79 0 0 1-4.25.35 6.8 6.8 0 0 1-1.17-.15 6.91 6.91 0 0 0-1.17-.15 4.42 4.42 0 0 1-4.47-2.67 13.81 13.81 0 0 1-.73-5.2 20.4 20.4 0 0 1 3-11.46 27.25 27.25 0 0 1 7.58-7.1l9.9-6.49q5.79-4.21 5.79-9.56 0-1.39-2.31-2.76a8.79 8.79 0 0 0-4.5-1.37q-3.88 0-8.22 3.46t-6 3.46a6.11 6.11 0 0 1-3.41-1A3.67 3.67 0 0 1 53.4 184a5 5 0 0 1 1.83-3.85 44.34 44.34 0 0 1 7.77-5.73 20.64 20.64 0 0 1 21.28.73q5.82 3.81 5.82 10a18.88 18.88 0 0 1-2.9 10.55 24.86 24.86 0 0 1-7.07 6.78q-4.58 2.89-9.16 5.75-7 4.54-7.47 10.36 2-.26 5.93-.59 7.8-.4 11.17-.4a15.33 15.33 0 0 1 6.23 1.4q3.81 1.69 3.81 4.32a4.94 4.94 0 0 1-4.91 4.87Z" fill="#f09999" class="fill-64b5f6"></path><path d="M211.08 197.44q7.54 4.21 7.54 13.48a16.74 16.74 0 0 1-5.53 12.67 18.9 18.9 0 0 1-13.44 5.2A23.29 23.29 0 0 1 189 226.4a14.42 14.42 0 0 1-7.36-7.91 4.6 4.6 0 0 1-.29-1.65 4.23 4.23 0 0 1 1.65-3.41 5.44 5.44 0 0 1 3.52-1.24 4.42 4.42 0 0 1 3.7 1.83 38 38 0 0 0 2.71 3.44q2.27 1.83 6.7 1.83a9.49 9.49 0 0 0 6.1-2.09 6.24 6.24 0 0 0 2.62-5q0-9.12-12.27-10.33-5.38-.51-5.38-4.5 0-3 4.17-4.43 4-.88 7.87-1.79a8.94 8.94 0 0 0 3.74-2 4.18 4.18 0 0 0 1.28-3q.15-5.46-8.53-5.46a11.85 11.85 0 0 0-6.26 2.18q-3.4 2.18-4.65 2.18a5.07 5.07 0 0 1-5-4.91q0-3.11 6.15-6.19 5.49-2.75 8.94-2.75 8.31 0 13.37 3.59 5.53 4 5.53 11.28a14.1 14.1 0 0 1-1.56 6.87 11.07 11.07 0 0 1-4.67 4.5Z" fill="#f09999" class="fill-f54337"></path></svg>