<svg viewBox="0 0 64 64" xmlns="http://www.w3.org/2000/svg"><path d="M52.55 33.65c2.74-.63 4.62-3.09 4.62-6.34s-1.88-5.71-4.62-6.34C49.71 10.95 40.63 3.99 30.16 3.99 17.29 4 6.83 14.46 6.83 27.32c0 8.12 4.17 15.27 10.48 19.45v6.94h-.62a3.15 3.15 0 1 0 0 6.3h26.23a3.15 3.15 0 1 0 0-6.3h-.62v-6.56c4.87-2.99 8.6-7.71 10.23-13.49Zm2.62-6.34c0 2.65-1.65 4.5-4.01 4.5-3.38 0-6.86-3.12-8.24-4.5 1.38-1.39 4.85-4.5 8.24-4.5 2.36 0 4.01 1.85 4.01 4.5ZM20.26 38.62l8.9-8.9v12.59c-3.4-.23-6.48-1.57-8.9-3.69Zm-5.1-10.31h12.59l-8.9 8.9c-2.12-2.42-3.46-5.5-3.69-8.9Zm24.93-12.34-8.93 8.93V12.3c3.4.22 6.5 1.54 8.93 3.67Zm4.57 7.28a24.396 24.396 0 0 0-3.56 3.06h-8.53l8.95-8.95c1.45 1.66 2.52 3.66 3.14 5.89Zm-15.5 1.65-8.9-8.9c2.42-2.12 5.5-3.46 8.9-3.69V24.9Zm-10.31-7.49 8.9 8.9h-12.6c.23-3.4 1.57-6.48 3.69-8.9Zm12.31 12.31 8.93 8.93a14.974 14.974 0 0 1-8.93 3.67v-12.6Zm10.36 7.53-8.95-8.95h8.53c.57.6 1.87 1.88 3.56 3.06-.62 2.23-1.7 4.23-3.14 5.89ZM8.83 27.32C8.83 15.57 18.39 6 30.15 6c9.35 0 17.47 6.09 20.26 14.91-1.41.14-2.76.62-4.01 1.28a17.024 17.024 0 0 0-16.25-11.98c-9.43 0-17.1 7.67-17.1 17.1s7.68 17.1 17.1 17.1c7.33 0 13.98-4.74 16.25-11.98 1.24.67 2.6 1.15 4.01 1.28-2.79 8.82-10.91 14.91-20.26 14.91-11.76 0-21.32-9.56-21.32-21.32ZM24.35 53.7v-3.83c1.86.48 3.8.76 5.8.76 1.76 0 3.46-.26 5.13-.64v3.7H24.35Zm-5.03-5.75c.97.51 1.99.94 3.03 1.32v4.44h-3.03v-5.75Zm24.76 8.9c0 .63-.52 1.15-1.15 1.15H16.7c-.63 0-1.15-.52-1.15-1.15s.52-1.15 1.15-1.15h26.23c.63 0 1.15.52 1.15 1.15Zm-3.77-3.15h-3.03v-4.22c1.05-.34 2.05-.76 3.03-1.24v5.46Z" fill="#ffffff" class="fill-000000"></path><path d="M49.92 27.32c0 .64.52 1.15 1.15 1.15s1.15-.52 1.15-1.15-.52-1.15-1.15-1.15-1.15.52-1.15 1.15ZM30.15 9.3c.64 0 1.15-.52 1.15-1.15s-.52-1.16-1.15-1.16S29 7.51 29 8.15s.52 1.15 1.15 1.15ZM31.31 46.57c0-.64-.52-1.16-1.15-1.16s-1.15.52-1.15 1.16.52 1.15 1.15 1.15 1.15-.52 1.15-1.15ZM12.1 27.36c0-.64-.52-1.15-1.16-1.15s-1.15.52-1.15 1.15.52 1.15 1.15 1.15 1.16-.52 1.16-1.15ZM40.76 11.3c.32-.55.13-1.26-.42-1.58-.55-.32-1.26-.13-1.58.42-.32.55-.13 1.26.42 1.58.55.32 1.26.13 1.58-.42ZM19.55 43.42c-.32.55-.13 1.26.42 1.58.55.32 1.26.13 1.58-.42.32-.55.13-1.26-.42-1.58-.55-.32-1.26-.13-1.58.42ZM47.79 37.54c.32-.55.13-1.26-.42-1.58-.55-.32-1.26-.13-1.58.42-.32.55-.13 1.26.42 1.58.55.32 1.26.13 1.58-.42ZM14.52 18.33c.32-.55.13-1.26-.42-1.58-.55-.32-1.26-.13-1.58.42-.32.55-.13 1.26.42 1.58.55.32 1.26.13 1.58-.42ZM34.83 9.92c.62.16 1.25-.2 1.41-.82.16-.62-.2-1.25-.82-1.41-.62-.16-1.25.2-1.41.82-.17.62.2 1.25.82 1.41ZM25.48 44.8a1.154 1.154 0 1 0 .82 1.41c.17-.62-.2-1.25-.82-1.41ZM11.3 23.5c.62.16 1.25-.2 1.41-.82.17-.62-.2-1.25-.82-1.41-.62-.16-1.25.2-1.41.82-.17.62.2 1.25.82 1.41ZM44.55 14.59a1.153 1.153 0 1 0-1.63-1.63 1.153 1.153 0 0 0 1.63 1.63ZM15.75 40.13a1.153 1.153 0 1 0 1.63 1.63 1.153 1.153 0 0 0-1.63-1.63ZM44.55 41.76a1.153 1.153 0 1 0-1.63-1.63 1.153 1.153 0 0 0 1.63 1.63ZM17.38 14.59a1.153 1.153 0 1 0-1.63-1.63 1.153 1.153 0 0 0 1.63 1.63ZM47.37 18.75a1.156 1.156 0 1 0-1.161-2 1.156 1.156 0 0 0 1.161 2ZM12.94 35.96a1.156 1.156 0 1 0 1.16 1.999 1.156 1.156 0 0 0-1.16-1.999ZM40.33 45a1.156 1.156 0 1 0-1.161-2 1.156 1.156 0 0 0 1.161 2ZM21.12 11.72a1.156 1.156 0 1 0-1.161-2 1.156 1.156 0 0 0 1.161 2ZM12.71 32.03a1.154 1.154 0 1 0-2.23.59 1.154 1.154 0 0 0 2.23-.59ZM35.42 47.03a1.154 1.154 0 1 0-.59-2.23 1.154 1.154 0 0 0 .59 2.23ZM25.48 9.92a1.154 1.154 0 1 0-.59-2.23 1.154 1.154 0 0 0 .59 2.23Z" fill="#ffffff" class="fill-000000"></path></svg>